# xmcd CD database file
#
# Track frame offsets:
#	183
#	18343
#	42020
#	74395
#	102958
#	118218
#	140410
#	152905
#	176485
#	194428
#	215135
#
# Disc length: 3102 seconds
#
# Revision: 1
# Processed by: cddbd v1.5.2PL0 Copyright (c) Steve Scherf et al.
# Submitted via: CDex 1.70beta2
#
DISCID=a00c1c0b
DTITLE=Andy Summers - Charming Snakes
DYEAR=1990
DGENRE=Jazz
TTITLE0=Mexico 1920
TTITLE1=Charming Snakes
TTITLE2=Big Thing
TTITLE3=Rainmaker
TTITLE4=Charis
TTITLE5=Mickey goes to Africa
TTITLE6=Innocence falls prey
TTITLE7=Passion of the shadow
TTITLE8=Monk gets ripped
TTITLE9=Easy on the ice
TTITLE10=The strong and the beautiful
EXTD=YEAR: 1990
EXTT0=
EXTT1=
EXTT2=
EXTT3=
EXTT4=
EXTT5=
EXTT6=
EXTT7=
EXTT8=
EXTT9=
EXTT10=
PLAYORDER=
